<?xml version="1.0" encoding="utf-8"?>
<!-- Generator: Adobe Illustrator 17.0.0, SVG Export Plug-In . SVG Version: 6.00 Build 0)  -->
<!DOCTYPE svg PUBLIC "-//W3C//DTD SVG 1.1//EN" "http://www.w3.org/Graphics/SVG/1.1/DTD/svg11.dtd">
<svg version="1.1" id="Layer_1" xmlns="http://www.w3.org/2000/svg" xmlns:xlink="http://www.w3.org/1999/xlink" x="0px" y="0px"
	 width="1540.698px" height="458.89px" viewBox="0 0 1540.698 458.89" enable-background="new 0 0 1540.698 458.89"
	 xml:space="preserve">
<image display="none" overflow="visible" enable-background="new    " width="4000" height="2000" xlink:href="9484599BDBA6267.png"  transform="matrix(0.24 0 0 0.24 0 0)">
</image>
<g>
	<path fill="#FFFFFF" d="M801.41,4.684h2.824c6.902,1.806,10.355,5.257,10.355,10.355v53.189h64.016
		c5.884,0,10.747,6.434,14.592,19.299c7.531,17.26,11.297,26.674,11.297,28.242v65.898c-1.727,6.904-5.178,10.355-10.355,10.355
		h-2.824c-6.904-1.804-10.355-5.255-10.355-10.355v-60.721l-11.297-28.713h-55.072v89.434c-1.806,6.904-5.257,10.355-10.355,10.355
		h-2.824c-6.904-1.725-10.355-5.178-10.355-10.355V15.04C792.779,8.138,796.232,4.684,801.41,4.684z"/>
	<path fill="#FFFFFF" d="M974.628,52.696c2.354,0,10.982,5.021,25.889,15.062c18.828,11.532,28.242,18.122,28.242,19.77l1.412,3.766
		v90.375c-1.727,6.904-5.178,10.355-10.355,10.355h-2.824c-6.354,0-9.964-4.707-10.826-14.121v-4.236h-0.471
		c-18.516,12.238-28.713,18.357-30.596,18.357h-3.295c-2.354,0-10.984-5.02-25.889-15.062
		c-18.828-11.532-28.242-18.122-28.242-19.77c-0.941-1.647-1.412-3.216-1.412-4.707v-3.295c0-4.157,6.275-9.649,18.828-16.475
		l61.191-39.068v-0.471l-23.535-14.121c-27.065,17.574-41.345,26.359-42.834,26.359h-2.354c-5.257,0-9.022-3.137-11.297-9.414
		v-3.766c0-5.099,6.275-10.903,18.828-17.416c22.123-14.748,34.203-22.123,36.244-22.123h3.296L974.628,52.696L974.628,52.696z
		 M950.152,151.073v0.471l23.535,14.121l32.479-21.182V115.77h-0.471L950.152,151.073z"/>
	<path fill="#FFFFFF" d="M1052.294,86.587h77.666c6.902,1.727,10.355,5.178,10.355,10.355v2.824c0,6.513-4.865,10.12-14.592,10.826
		h-59.779v57.426h58.838c8.002,0,13.021,2.668,15.062,8.002l0.471,2.824v2.824c-1.727,6.904-5.178,10.355-10.355,10.355h-77.666
		c-6.904-1.725-10.355-5.178-10.355-10.355V96.942C1043.664,90.04,1047.117,86.587,1052.294,86.587z"/>
	<path fill="#FFFFFF" d="M1162.439,4.684h2.824c6.902,1.806,10.355,5.257,10.355,10.355v102.143l74.842-83.314
		c2.195-1.568,4.236-2.354,6.119-2.354h2.354c5.648,0,9.256,3.766,10.826,11.297c0,4.63-3.453,10.12-10.355,16.475l-32.479,36.715
		c25.495,28.636,39.46,44.64,41.893,48.012l0.941,5.648v32.008c-1.727,6.904-5.178,10.355-10.355,10.355h-2.824
		c-5.336,0-8.787-3.607-10.355-10.826l-0.471-16.475v-11.297l-34.832-39.068c-3.53,3.218-15.298,16.397-35.303,39.539v27.771
		c-1.806,6.904-5.257,10.355-10.355,10.355h-2.824c-6.904-1.725-10.355-5.178-10.355-10.355V15.04
		C1153.808,8.138,1157.261,4.684,1162.439,4.684z"/>
</g>
<g>
	<path fill="#FFFFFF" d="M709.505,221.619c2.532,0,12.336,5.72,29.414,17.158c22.141,13.646,34.562,21.815,37.258,24.512
		c1.633,2.288,2.451,4.412,2.451,6.373v3.432c-2.371,6.863-5.965,10.295-10.785,10.295h-1.961c-2.861,0-11.358-4.737-25.492-14.217
		l-32.355-20.59l-35.297,22.06v0.49l102.459,64.711c2.287,2.941,3.432,5.558,3.432,7.844v3.432c0,4.494-7.191,10.54-21.57,18.139
		c-29.088,19.284-44.776,28.924-47.062,28.924h-3.432c-2.451,0-12.256-5.718-29.414-17.158
		c-22.143-13.645-34.562-21.815-37.258-24.512c-1.635-2.286-2.451-4.412-2.451-6.373v-3.432c2.369-6.863,5.963-10.295,10.785-10.295
		h1.961c2.859,0,11.356,4.739,25.492,14.217l32.355,20.59l35.297-22.061v-0.49c-54.499-33.906-88.978-55.805-103.439-65.691
		l-2.451-5.883v-3.432c0-5.228,6.045-10.948,18.139-17.158c31.783-20.59,48.451-30.885,50.004-30.885L709.505,221.619
		L709.505,221.619z"/>
	<path fill="#FFFFFF" d="M801.669,199.068h2.941c7.189,1.88,10.785,5.475,10.785,10.785v55.396h66.672
		c6.128,0,11.193,6.7,15.197,20.1c7.844,17.976,11.766,27.78,11.766,29.414v68.633c-1.798,7.19-5.393,10.785-10.785,10.785h-2.941
		c-7.191-1.879-10.785-5.473-10.785-10.785v-63.24l-11.766-29.904h-57.357v93.145c-1.88,7.19-5.475,10.785-10.785,10.785h-2.941
		c-7.191-1.796-10.785-5.393-10.785-10.785V209.853C792.681,202.664,796.277,199.068,801.669,199.068z"/>
	<path fill="#FFFFFF" d="M982.076,249.072c2.451,0,11.438,5.229,26.963,15.688c19.609,12.011,29.414,18.874,29.414,20.59
		c0.98,1.636,1.471,3.269,1.471,4.902v3.432c0,4.332-6.538,10.05-19.609,17.158l-63.73,40.689v0.49l24.512,14.707
		c28.188-18.302,43.058-27.453,44.611-27.453h2.451c5.473,0,9.395,3.269,11.766,9.805v3.922c0,5.312-6.538,11.357-19.609,18.139
		c-23.041,15.362-35.625,23.041-37.748,23.041h-3.432c-2.451,0-11.44-5.228-26.963-15.688
		c-19.609-12.011-29.414-18.874-29.414-20.59l-1.471-3.922v-63.73c0-5.311,6.536-11.355,19.609-18.139
		c23.041-15.36,35.623-23.041,37.748-23.041H982.076z M946.289,298.585v29.904h0.49l57.848-36.768v-0.49l-24.512-14.707
		C957.972,290.496,946.696,297.85,946.289,298.585z"/>
	<path fill="#FFFFFF" d="M1111.988,251.89h2.941c3.922,0,9.805,5.067,17.648,15.197c11.766,11.931,17.648,19.609,17.648,23.041
		v2.941c-1.798,7.191-5.393,10.785-10.785,10.785h-2.941c-3.922,0-9.805-5.064-17.648-15.197l-5.393-5.393
		c-24.187,26.229-36.277,39.955-36.277,41.18v9.314h24.512c8.252,0,13.316,2.451,15.197,7.354l1.471,5.393
		c-1.798,8.172-5.558,12.256-11.275,12.256h-29.904v71.942c0,8.334-2.779,13.562-8.334,15.688l-2.941,0.49h-2.941
		c-7.191-1.798-10.785-5.393-10.785-10.785V317.581c0-3.267,5.393-10.457,16.178-21.57c21.243-24.429,34.642-38.973,40.199-43.631
		L1111.988,251.89z"/>
	<path fill="#FFFFFF" d="M1203.048,251.89h2.941c3.922,0,9.805,5.067,17.648,15.197c11.766,11.931,17.648,19.609,17.648,23.041
		v2.941c-1.798,7.191-5.393,10.785-10.785,10.785h-2.941c-3.922,0-9.805-5.064-17.648-15.197l-5.393-5.393
		c-24.187,26.229-36.277,39.955-36.277,41.18v9.314h24.512c8.252,0,13.316,2.451,15.197,7.354l1.471,5.393
		c-1.798,8.172-5.558,12.256-11.275,12.256h-29.904v71.942c0,8.334-2.778,13.562-8.334,15.688l-2.941,0.49h-2.941
		c-7.19-1.798-10.785-5.393-10.785-10.785V317.581c0-3.267,5.393-10.457,16.178-21.57c21.243-24.429,34.642-38.973,40.199-43.631
		L1203.048,251.89z"/>
	<path fill="#FFFFFF" d="M1256.607,199.068h2.941c7.188,1.798,10.785,5.393,10.785,10.785v15.197c0,5.72-4.087,9.479-12.256,11.275
		c-8.171-1.796-12.256-5.555-12.256-11.275v-15.197C1247.618,202.664,1251.214,199.068,1256.607,199.068z M1257.097,249.072h1.961
		c7.517,1.961,11.275,5.393,11.275,10.295v124.029c-1.798,7.19-5.393,10.785-10.785,10.785h-2.941
		c-7.19-1.796-10.785-5.393-10.785-10.785V259.367C1245.822,254.464,1249.579,251.033,1257.097,249.072z"/>
	<path fill="#FFFFFF" d="M1335.902,249.072c2.451,0,11.438,5.229,26.963,15.688c19.609,12.011,29.414,18.874,29.414,20.59
		c0.98,1.636,1.471,3.269,1.471,4.902v3.432c0,4.332-6.538,10.05-19.609,17.158l-63.73,40.689v0.49l24.512,14.707
		c28.188-18.302,43.059-27.453,44.611-27.453h2.451c5.473,0,9.395,3.269,11.766,9.805v3.922c0,5.312-6.538,11.357-19.609,18.139
		c-23.041,15.362-35.624,23.041-37.748,23.041h-3.432c-2.451,0-11.44-5.228-26.963-15.688
		c-19.609-12.011-29.414-18.874-29.414-20.59l-1.471-3.922v-63.73c0-5.311,6.536-11.355,19.609-18.139
		c23.041-15.36,35.622-23.041,37.748-23.041H1335.902z M1300.115,298.585v29.904h0.49l57.848-36.768v-0.49l-24.512-14.707
		C1311.798,290.496,1300.523,297.85,1300.115,298.585z"/>
	<path fill="#FFFFFF" d="M1416.791,199.068h2.941c7.188,1.798,10.785,5.393,10.785,10.785v173.543
		c-1.798,7.19-5.393,10.785-10.785,10.785h-2.941c-7.19-1.796-10.785-5.393-10.785-10.785V209.853
		C1407.801,202.664,1411.398,199.068,1416.791,199.068z"/>
	<path fill="#FFFFFF" d="M1524.03,199.068h2.941c7.188,1.798,10.785,5.393,10.785,10.785v173.543
		c-1.798,7.19-5.393,10.785-10.785,10.785h-80.888c-7.19-1.796-10.785-5.393-10.785-10.785v-88.242
		c0-5.393,3.757-8.987,11.275-10.785h66.182v-70.594C1513.653,203.97,1517.412,199.068,1524.03,199.068z M1460.299,309.371v60.299
		h52.455v-60.299H1460.299z"/>
</g>
<g enable-background="new    ">
	<path fill="#FFFFFF" d="M13.297,12.402h2.824c6.902,1.806,10.355,5.257,10.355,10.355v53.189h64.016
		c5.884,0,10.747,6.434,14.592,19.299c7.531,17.26,11.297,26.674,11.297,28.242v65.898c-1.727,6.904-5.178,10.355-10.355,10.355
		h-2.824c-6.904-1.804-10.355-5.255-10.355-10.355v-60.721L81.549,99.953H26.477v89.434c-1.806,6.904-5.257,10.355-10.355,10.355
		h-2.824c-6.904-1.725-10.355-5.178-10.355-10.355V22.757C4.666,15.855,8.119,12.402,13.297,12.402z"/>
	<path fill="#FFFFFF" d="M186.516,60.414c2.354,0,10.982,5.021,25.889,15.063c18.828,11.532,28.242,18.122,28.242,19.77l1.412,3.766
		v90.375c-1.727,6.904-5.178,10.355-10.355,10.355h-2.824c-6.354,0-9.964-4.707-10.826-14.121v-4.236h-0.471
		c-18.516,12.238-28.713,18.357-30.596,18.357h-3.295c-2.354,0-10.984-5.02-25.889-15.062
		c-18.828-11.532-28.242-18.122-28.242-19.77c-0.941-1.647-1.412-3.216-1.412-4.707v-3.295c0-4.157,6.275-9.649,18.828-16.475
		l61.191-39.068v-0.471l-23.535-14.121c-27.065,17.574-41.345,26.359-42.834,26.359h-2.354c-5.257,0-9.022-3.137-11.297-9.414
		v-3.766c0-5.099,6.275-10.903,18.828-17.416c22.123-14.748,34.203-22.123,36.244-22.123H186.516z M162.039,158.791v0.471
		l23.535,14.121l32.479-21.182v-28.713h-0.471L162.039,158.791z"/>
	<path fill="#FFFFFF" d="M309.369,60.414h2.824c2.354,0,10.982,5.021,25.889,15.063c18.828,11.532,28.242,18.122,28.242,19.77
		c0.941,1.57,1.412,3.139,1.412,4.707v3.295c-2.276,6.59-5.728,9.885-10.355,9.885h-1.883c-3.295,0-13.18-5.805-29.654-17.416
		l-15.533-8.943l-22.594,14.121v0.471l77.195,49.424c1.883,2.903,2.824,4.942,2.824,6.119v3.295c0,5.101-6.277,10.905-18.828,17.416
		c-22.123,14.75-34.205,22.123-36.244,22.123h-3.295c-2.354,0-10.984-5.02-25.889-15.062c-18.828-11.532-28.242-18.122-28.242-19.77
		c-0.941-1.647-1.412-3.216-1.412-4.707v-3.295c2.274-6.59,5.726-9.885,10.355-9.885h1.883c3.295,0,13.18,5.807,29.654,17.416
		l15.533,8.943l22.594-14.121v-0.471l-77.195-49.424c-1.883-2.824-2.824-5.178-2.824-7.061v-3.295c0-4.236,6.59-9.885,19.77-16.945
		C294.778,67.632,306.701,60.414,309.369,60.414z"/>
	<path fill="#FFFFFF" d="M389.86,12.402h2.824c6.902,1.806,10.355,5.257,10.355,10.355v53.189h64.016
		c5.884,0,10.747,6.434,14.592,19.299c7.531,17.26,11.297,26.674,11.297,28.242v65.898c-1.727,6.904-5.178,10.355-10.355,10.355
		h-2.824c-6.904-1.804-10.355-5.255-10.355-10.355v-60.721l-11.297-28.713h-55.072v89.434c-1.806,6.904-5.257,10.355-10.355,10.355
		h-2.824c-6.904-1.725-10.355-5.178-10.355-10.355V22.757C381.229,15.855,384.682,12.402,389.86,12.402z"/>
</g>
<g enable-background="new    ">
	<path fill="#FFFFFF" d="M26.477,288.071h77.666c6.902,1.727,10.355,5.178,10.355,10.355v2.824c0,6.513-4.865,10.12-14.592,10.826
		H40.128v57.426h58.838c8.002,0,13.021,2.668,15.062,8.002l0.471,2.824v2.824c-1.727,6.904-5.178,10.355-10.355,10.355H26.477
		c-6.904-1.725-10.355-5.178-10.355-10.355v-84.727C17.846,291.524,21.3,288.071,26.477,288.071z"/>
	<path fill="#FFFFFF" d="M168.394,254.18h2.824c4.001,0,9.021,4.395,15.062,13.18c27.928,33.97,41.893,51.386,41.893,52.248
		l0.471,2.824v2.824c0,3.218-5.178,10.435-15.533,21.652c-19.928,25.576-32.479,40.795-37.656,45.658l-4.236,0.941h-2.824
		c-4.001,0-9.022-4.393-15.062-13.18l-41.422-51.307l-0.941-3.766v-2.824c0-3.295,5.178-10.512,15.533-21.652
		c19.926-25.574,32.479-40.793,37.656-45.658L168.394,254.18z M138.269,323.844l31.537,38.598l31.537-38.598l-31.537-38.598
		L138.269,323.844z"/>
	<path fill="#FFFFFF" d="M325.609,206.168h2.824c6.902,1.727,10.355,5.178,10.355,10.355v166.629
		c-1.727,6.904-5.178,10.355-10.355,10.355h-77.666c-6.904-1.725-10.355-5.178-10.355-10.355v-84.727
		c0-5.178,3.607-8.629,10.826-10.355h63.545V220.29C315.645,210.876,319.255,206.168,325.609,206.168z M264.418,312.077v57.896
		h50.365v-57.896H264.418z"/>
	<path fill="#FFFFFF" d="M408.924,254.18c2.354,0,10.982,5.021,25.889,15.062c18.828,11.532,28.242,18.122,28.242,19.77
		c0.941,1.57,1.412,3.139,1.412,4.707v3.295c0,4.159-6.277,9.649-18.828,16.475l-61.191,39.068v0.471l23.535,14.121
		c27.065-17.572,41.343-26.359,42.834-26.359h2.354c5.255,0,9.021,3.139,11.297,9.414v3.766c0,5.101-6.277,10.905-18.828,17.416
		c-22.123,14.75-34.205,22.123-36.244,22.123h-3.295c-2.354,0-10.984-5.02-25.889-15.062c-18.828-11.532-28.242-18.122-28.242-19.77
		l-1.412-3.766v-61.191c0-5.099,6.275-10.903,18.828-17.416c22.123-14.748,34.203-22.123,36.244-22.123H408.924z M374.562,301.721
		v28.713h0.471l55.543-35.303v-0.471l-23.535-14.121C385.78,293.955,374.954,301.015,374.562,301.721z"/>
</g>
<g enable-background="new    ">
	<path fill="#FFFFFF" d="M591.23,292.479l10.508-2.651l0.048-0.283l-10.556-3.361l-36.4-11.502v-2.604l36.4-11.455l10.556-3.312
		l-0.048-0.285l-10.508-2.744l-36.4-10.414v-2.982l51.216,14.91v2.557l-38.482,12.639l-8.662,2.271v0.283l8.662,2.462l38.482,12.449
		v2.556l-51.216,14.863v-2.935L591.23,292.479z"/>
	<path fill="#FFFFFF" d="M538.736,225.123v2.556h-6.532v-2.556H538.736z M606.046,225.123v2.556H554.83v-2.556H606.046z"/>
	<path fill="#FFFFFF" d="M541.009,203.017h13.821v-12.591h2.604v12.591h35.406c4.197,0,7.188-0.71,8.97-2.13
		c1.783-1.42,2.674-3.297,2.674-5.633c0-0.852-0.03-1.609-0.094-2.272c-0.063-0.663-0.174-1.577-0.332-2.745l2.319-0.474
		c0.253,0.79,0.427,1.609,0.521,2.461c0.095,0.852,0.143,1.815,0.143,2.888c0,3.44-1.12,6.051-3.361,7.833
		c-2.24,1.783-5.853,2.675-10.839,2.675h-35.406v9.467h-2.604v-9.467h-13.821V203.017z"/>
	<path fill="#FFFFFF" d="M565.622,175.8c-3.723-1.577-6.61-3.897-8.662-6.958c-2.051-3.061-3.076-6.8-3.076-11.218
		c0-5.333,1.688-9.379,5.064-12.141c3.377-2.761,8.694-4.142,15.952-4.142h31.146v2.603h-31.24c-6.722,0-11.463,1.239-14.225,3.716
		c-2.761,2.478-4.142,5.783-4.142,9.917c0,5.522,1.649,9.751,4.946,12.686c3.298,2.935,7.519,4.781,12.662,5.538h31.998v2.556
		h-73.842V175.8H565.622z"/>
</g>
</svg>
